{"title":"TEEN IDOL 7 DVD","uid":7046910,"size":1426682218,"categoryP":"porn","categoryS":"movies","magnet":"?xt=urn:btih:bafba27d1791f888ddf32e45068c1bc94654c13d&amp;dn=TEEN+IDOL+7+DVD&amp;tr=udp%3A%2F%2Ftracker.openbittorrent.com%3A80&amp;tr=udp%3A%2F%2Fopen.demonii.com%3A1337&amp;tr=udp%3A%2F%2Ftracker.coppersurfer.tk%3A6969&amp;tr=udp%3A%2F%2Fexodus.desync.com%3A6969","seeders":0,"leechers":1,"uploader":"tigris1968","files":89,"time":1329784735,"description":"Teen Idol # 7 DVD\nSmash Pictures\n\nCategory All Sex, HD - Shot In High Def, Legal Teen \nDirector Jim Powers \nStarring Gracie Glam, Brooke Lee Adams, Lily Labeau, Victoria White, Michael Vegas, Joey Brass, Melanie Rios, Ralph Long, Chris Strokes, Eva Ellington, Vin Vericose\nFive torrid tales of teen lust erupt in this brand new edition of TEEN IDOL. A young catholic school girl fantasizes about her teacher fucking her on his desk during a detention period. Meet the very bad cheerleader who forces her way onto a young educator with the threat of blackmail. A teen allows her boyfriend to pity fuck her bestfriend, then joins in for her first threesome. A soccer player shows her trainer just how much she appreciates what he has done for her. And a young couple get caught in a rainstorm and use a little friction to warm up. It's a cumming of age party you won't want to miss out on.\n &lt;a href=&quot;\nhttp://bayimg.com/dAMjmAadM&quot; rel=&quot;nofollow&quot; target=&quot;_NEW&quot;&gt;\nhttp://bayimg.com/dAMjmAadM&lt;/a&gt;\n &lt;a href=&quot;\nhttp://bayimg.com/damjnAadM&quot; rel=&quot;nofollow&quot; target=&quot;_NEW&quot;&gt;\nhttp://bayimg.com/damjnAadM&lt;/a&gt;\n &lt;a href=&quot;\nhttp://bayimg.com/DAMJOAADM&quot; rel=&quot;nofollow&quot; target=&quot;_NEW&quot;&gt;\nhttp://bayimg.com/DAMJOAADM&lt;/a&gt;\n\nGeneral\nComplete name                    : C:\\Downloads\\TEEN IDOL 7 DVD\\dvd\\TEEN IDOL 7 DVD.avi\nFormat                           : AVI\nFormat/Info                      : Audio Video Interleave\nFormat profile                   : OpenDML\nFile size                        : 1.31 GiB\nDuration                         : 2h 19mn\nOverall bit rate                 : 1 339 Kbps\nWriting application              : MEncoder SVN-r30881(20100311-gcc4.3.3)\nWriting library                  : MPlayer\n\nVideo\nID                               : 0\nFormat                           : MPEG-4 Visual\nFormat profile                   : Advanced Simple@L5\nFormat settings, BVOP            : 2\nFormat settings, QPel            : No\nFormat settings, GMC             : No warppoints\nFormat settings, Matrix          : Default (H.263)\nCodec ID                         : XVID\nCodec ID/Hint                    : XviD\nDuration                         : 2h 19mn\nBit rate                         : 40.3 Kbps\nWidth                            : 720 pixels\nHeight                           : 480 pixels\nDisplay aspect ratio             : 3:2\nFrame rate                       : 25.000 fps\nStandard                         : NTSC\nColor space                      : YUV\nChroma subsampling               : 4:2:0\nBit depth                        : 8 bits\nScan type                        : Progressive\nCompression mode                 : Lossy\nBits/(Pixel*Frame)               : 0.005\nStream size                      : 40.2 MiB (3%)\nWriting library                  : XviD 1.2.1 (UTC 2008-12-04)\n\nAudio\nID                               : 1\nFormat                           : MPEG Audio\nCodec ID                         : 55\nCodec ID/Hint                    : MP3\nDuration                         : 2h 19mn\nBit rate                         : 128 Kbps\nChannel(s)                       : 2 channels\nSampling rate                    : 44.1 KHz\nCompression mode                 : Lossy\nStream size                      : 128 MiB (10%)\nAlignment                        : Aligned on interleaves\n\n","torrent":{"xt":"urn:btih:bafba27d1791f888ddf32e45068c1bc94654c13d","amp;dn":"TEEN+IDOL+7+DVD","amp;tr":["udp%3A%2F%2Ftracker.openbittorrent.com%3A80","udp%3A%2F%2Fopen.demonii.com%3A1337","udp%3A%2F%2Ftracker.coppersurfer.tk%3A6969","udp%3A%2F%2Fexodus.desync.com%3A6969"],"infoHash":"bafba27d1791f888ddf32e45068c1bc94654c13d","infoHashBuffer":{"type":"Buffer","data":[186,251,162,125,23,145,248,136,221,243,46,69,6,140,27,201,70,84,193,61]},"announce":[],"urlList":[]}}